<?xml version="1.0" encoding="iso-8859-1"?>
<!-- Uploaded to: SVG Repo, www.svgrepo.com, Generator: SVG Repo Mixer Tools -->
<svg height="800px" width="800px" version="1.1" id="Layer_1" xmlns="http://www.w3.org/2000/svg" xmlns:xlink="http://www.w3.org/1999/xlink" 
	 viewBox="0 0 512 512" xml:space="preserve">
<path style="fill:#AB91EA;" d="M512,256.006C512,397.402,397.394,512.004,256.004,512C114.606,512.004,0,397.402,0,256.006
	C-0.007,114.61,114.606,0,256.004,0C397.394,0,512,114.614,512,256.006z"/>
<path style="fill:#947ADB;" d="M512,256.005c0-19.62-2.281-38.695-6.46-57.05c-0.062-0.043-81.1-81.381-81.767-81.766
	c-1.327-1.518-3.102-2.588-5.164-2.588H93.391c-2.55,0-4.905,1.374-6.158,3.598c-1.253,2.223-1.212,4.95,0.111,7.132
	l162.608,268.656c0.388,0.642,1.01,1.038,1.562,1.515l0.071,0.117c0.388,0.642,97.305,97.332,97.856,97.809l0.071,0.117
	c0.139,0.229,0.373,0.361,0.558,0.542C444.894,456.595,512,364.175,512,256.005z"/>
<path style="fill:#F4F6F9;" d="M424.767,118.198c-1.253-2.223-3.607-3.597-6.159-3.597H93.392c-2.551,0-4.906,1.374-6.159,3.597
	s-1.212,4.95,0.111,7.132l162.608,268.658c1.281,2.119,3.573,3.411,6.048,3.411c2.475,0,4.767-1.291,6.048-3.411l162.608-268.657
	C425.979,123.149,426.02,120.421,424.767,118.198z M256,376.672L105.933,128.741h300.133L256,376.672z"/>
</svg>