<!DOCTYPE svg PUBLIC "-//W3C//DTD SVG 1.1//EN" "http://www.w3.org/Graphics/SVG/1.1/DTD/svg11.dtd">
<!-- Uploaded to: SVG Repo, www.svgrepo.com, Transformed by: SVG Repo Mixer Tools -->
<svg height="800px" width="800px" version="1.1" id="Layer_1" xmlns="http://www.w3.org/2000/svg" xmlns:xlink="http://www.w3.org/1999/xlink" viewBox="0 0 512 512" xml:space="preserve" fill="#000000">
<g id="SVGRepo_bgCarrier" stroke-width="0"/>
<g id="SVGRepo_tracerCarrier" stroke-linecap="round" stroke-linejoin="round"/>
<g id="SVGRepo_iconCarrier"> <path style="fill:#FFFFFF;" d="M256,504C119.248,504,8,392.752,8,256S119.248,8,256,8s248,111.248,248,248S392.752,504,256,504z"/> <g> <path style="fill:#bc5c61;" d="M256,16c132.336,0,240,107.664,240,240S388.336,496,256,496S16,388.336,16,256S123.664,16,256,16 M256,0C114.608,0,0,114.608,0,256c0,141.376,114.608,256,256,256s256-114.624,256-256S397.392,0,256,0L256,0z"/> <path style="fill:#bc5c61;" d="M256.336,421.024l147.968-276.848H108.368L256.336,421.024z M256.336,284.88l-41.952-78.512h83.92 L256.336,284.88z"/> </g> </g>
</svg>