<?xml version="1.0" encoding="utf-8"?>
<!-- Uploaded to: SVG Repo, www.svgrepo.com, Generator: SVG Repo Mixer Tools -->
<svg width="800px" height="800px" viewBox="0 0 32 32" xmlns="http://www.w3.org/2000/svg" xmlns:xlink="http://www.w3.org/1999/xlink">
  <defs>
    <clipPath id="clip-trash">
      <rect width="32" height="32"/>
    </clipPath>
  </defs>
  <g id="trash" clip-path="url(#clip-trash)">
    <g id="Group_2024" data-name="Group 2024" transform="translate(-260 -416)">
      <g id="Group_1984" data-name="Group 1984">
        <g id="Group_1983" data-name="Group 1983">
          <g id="Group_1982" data-name="Group 1982">
            <g id="Group_1981" data-name="Group 1981">
              <g id="Group_1980" data-name="Group 1980">
                <g id="Group_1979" data-name="Group 1979">
                  <g id="Group_1978" data-name="Group 1978">
                    <g id="Group_1977" data-name="Group 1977">
                      <g id="Group_1976" data-name="Group 1976">
                        <g id="Group_1975" data-name="Group 1975">
                          <g id="Group_1974" data-name="Group 1974">
                            <g id="Group_1973" data-name="Group 1973">
                              <g id="Group_1972" data-name="Group 1972">
                                <path id="Path_3764" data-name="Path 3764" d="M271,442.885h1.656a.925.925,0,0,0,.828-1v-13a.925.925,0,0,0-.828-1H271a.925.925,0,0,0-.828,1v13A.925.925,0,0,0,271,442.885Zm.172-14h1.312v13h-1.312Z" fill="#344952"/>
                              </g>
                            </g>
                          </g>
                        </g>
                      </g>
                    </g>
                  </g>
                </g>
              </g>
            </g>
          </g>
        </g>
      </g>
      <g id="Group_1997" data-name="Group 1997">
        <g id="Group_1996" data-name="Group 1996">
          <g id="Group_1995" data-name="Group 1995">
            <g id="Group_1994" data-name="Group 1994">
              <g id="Group_1993" data-name="Group 1993">
                <g id="Group_1992" data-name="Group 1992">
                  <g id="Group_1991" data-name="Group 1991">
                    <g id="Group_1990" data-name="Group 1990">
                      <g id="Group_1989" data-name="Group 1989">
                        <g id="Group_1988" data-name="Group 1988">
                          <g id="Group_1987" data-name="Group 1987">
                            <g id="Group_1986" data-name="Group 1986">
                              <g id="Group_1985" data-name="Group 1985">
                                <path id="Path_3765" data-name="Path 3765" d="M275.172,442.885h1.656a.925.925,0,0,0,.828-1v-13a.925.925,0,0,0-.828-1h-1.656a.925.925,0,0,0-.828,1v13A.925.925,0,0,0,275.172,442.885Zm.172-14h1.312v13h-1.312Z" fill="#344952"/>
                              </g>
                            </g>
                          </g>
                        </g>
                      </g>
                    </g>
                  </g>
                </g>
              </g>
            </g>
          </g>
        </g>
      </g>
      <g id="Group_2010" data-name="Group 2010">
        <g id="Group_2009" data-name="Group 2009">
          <g id="Group_2008" data-name="Group 2008">
            <g id="Group_2007" data-name="Group 2007">
              <g id="Group_2006" data-name="Group 2006">
                <g id="Group_2005" data-name="Group 2005">
                  <g id="Group_2004" data-name="Group 2004">
                    <g id="Group_2003" data-name="Group 2003">
                      <g id="Group_2002" data-name="Group 2002">
                        <g id="Group_2001" data-name="Group 2001">
                          <g id="Group_2000" data-name="Group 2000">
                            <g id="Group_1999" data-name="Group 1999">
                              <g id="Group_1998" data-name="Group 1998">
                                <path id="Path_3766" data-name="Path 3766" d="M279.344,442.885H281a.925.925,0,0,0,.828-1v-13a.925.925,0,0,0-.828-1h-1.656a.925.925,0,0,0-.828,1v13A.925.925,0,0,0,279.344,442.885Zm.172-14h1.312v13h-1.312Z" fill="#344952"/>
                              </g>
                            </g>
                          </g>
                        </g>
                      </g>
                    </g>
                  </g>
                </g>
              </g>
            </g>
          </g>
        </g>
      </g>
      <g id="Group_2023" data-name="Group 2023">
        <g id="Group_2022" data-name="Group 2022">
          <g id="Group_2021" data-name="Group 2021">
            <g id="Group_2020" data-name="Group 2020">
              <g id="Group_2019" data-name="Group 2019">
                <g id="Group_2018" data-name="Group 2018">
                  <g id="Group_2017" data-name="Group 2017">
                    <g id="Group_2016" data-name="Group 2016">
                      <g id="Group_2015" data-name="Group 2015">
                        <g id="Group_2014" data-name="Group 2014">
                          <g id="Group_2013" data-name="Group 2013">
                            <g id="Group_2012" data-name="Group 2012">
                              <g id="Group_2011" data-name="Group 2011">
                                <path id="Path_3767" data-name="Path 3767" d="M285.395,419.855h-3.479v-.8a1.412,1.412,0,0,0-1.41-1.41h-9.012a1.412,1.412,0,0,0-1.41,1.41v.8H266.6a2.857,2.857,0,0,0-2.854,2.854v1.707a2,2,0,0,0,2,2v15.938a4,4,0,0,0,4,4h12.5a4,4,0,0,0,4-4V426.416a2,2,0,0,0,2-2v-1.707A2.857,2.857,0,0,0,285.395,419.855Zm-14.311-.8a.41.41,0,0,1,.41-.41h9.012a.41.41,0,0,1,.41.41v.8h-9.832Zm13.166,23.3a2.006,2.006,0,0,1-2,2h-12.5a2.006,2.006,0,0,1-2-2V426.416h16.5Zm2-18.791v.853h-20.5v-1.707a.853.853,0,0,1,.854-.854h18.791a.853.853,0,0,1,.855.854Z" fill="#344952"/>
                              </g>
                            </g>
                          </g>
                        </g>
                      </g>
                    </g>
                  </g>
                </g>
              </g>
            </g>
          </g>
        </g>
      </g>
    </g>
  </g>
</svg>