<svg class="svg-icon" style="width: 1em; height: 1em;vertical-align: middle;fill: currentColor;overflow: hidden;" viewBox="0 0 1024 1024" version="1.1" xmlns="http://www.w3.org/2000/svg"><path d="M414.08 419.2l51.2 140.8H351.36l51.2-140.8c1.92-5.76 3.84-13.44 5.12-23.68h1.28c1.92 11.52 3.84 19.2 5.12 23.68z"  /><path d="M512 128C300.16 128 128 300.16 128 512s172.16 384 384 384 384-172.16 384-384-172.16-384-384-384z m1.28 563.2l-34.56-92.8h-140.8l-32.64 92.8h-48.64l129.28-339.2h46.72l129.344 339.2H513.28z m134.4 0h-42.24V332.8h42.24v358.4z m119.68 0h-42.88V332.8h42.88v358.4z"  /></svg>