<!DOCTYPE svg PUBLIC "-//W3C//DTD SVG 1.1//EN" "http://www.w3.org/Graphics/SVG/1.1/DTD/svg11.dtd">
<!-- Uploaded to: SVG Repo, www.svgrepo.com, Transformed by: SVG Repo Mixer Tools -->
<svg fill="#000000" version="1.1" id="Capa_1" xmlns="http://www.w3.org/2000/svg" xmlns:xlink="http://www.w3.org/1999/xlink" width="64px" height="64px" viewBox="0 0 553.857 553.858" xml:space="preserve" transform="rotate(90)">
<g id="SVGRepo_bgCarrier" stroke-width="0"/>
<g id="SVGRepo_tracerCarrier" stroke-linecap="round" stroke-linejoin="round"/>
<g id="SVGRepo_iconCarrier"> <g> <g> <path d="M521.061,116.107H273.197v-55.83c0-18.237-13.375-28.082-25.958-28.082c-5.095,0-12.714,1.512-20.08,8.721L9.808,253.639 C3.485,259.83,0,268.101,0,276.922c0,8.822,3.482,17.094,9.811,23.296L227.159,512.94c7.362,7.207,14.982,8.722,20.08,8.722 c12.583-0.004,25.955-9.845,25.955-28.082v-52.553h247.863c18.084,0,32.801-14.712,32.801-32.797V148.904 C553.859,130.82,539.145,116.107,521.061,116.107z M507.961,395.127H227.297v53.725L51.635,276.925l175.662-171.923v57.005 h280.664V395.127z"/> </g> </g> </g>
</svg>